<svg xmlns="http://www.w3.org/2000/svg" width="101" height="100" fill="none"><path fill="#000" d="M53.545 65.028a33.951 33.951 0 0 1 6.74-2.357 30.596 30.596 0 0 1 6.965-.783c1.827 0 3.617.15 5.37.448 1.751.3 3.515.748 5.29 1.346V34.075a26.733 26.733 0 0 0-5.218-1.57 28.426 28.426 0 0 0-12.523.374 26.347 26.347 0 0 0-6.623 2.691v29.458ZM50.5 73.85a29.375 29.375 0 0 0-7.918-4.41 25.357 25.357 0 0 0-8.832-1.57c-2.69 0-5.507.498-8.451 1.495-2.944.996-5.71 2.541-8.299 4.635V30.636c2.233-1.496 4.86-2.642 7.882-3.44C27.902 26.4 30.859 26 33.75 26c2.944 0 5.825.374 8.643 1.122 2.818.747 5.52 1.869 8.107 3.364a33.156 33.156 0 0 1 8.11-3.364A33.548 33.548 0 0 1 67.25 26c2.893 0 5.85.399 8.871 1.196 3.022.798 5.648 1.944 7.879 3.44V74c-2.538-2.094-5.292-3.639-8.262-4.635-2.97-.997-5.8-1.496-8.488-1.496-3.046 0-5.99.523-8.832 1.57a29.375 29.375 0 0 0-7.918 4.412Zm6.09-30.205V38.56a27.103 27.103 0 0 1 5.142-1.57 28.202 28.202 0 0 1 5.518-.524c1.32 0 2.614.1 3.883.3 1.269.199 2.513.448 3.73.747v4.785a21.828 21.828 0 0 0-3.694-1.008 22.356 22.356 0 0 0-3.919-.338c-1.929 0-3.781.237-5.558.712a24.98 24.98 0 0 0-5.101 1.98Zm0 16.448V55.01a27.103 27.103 0 0 1 5.142-1.57 28.202 28.202 0 0 1 5.518-.523c1.32 0 2.614.1 3.883.299 1.269.2 2.513.449 3.73.748v4.785a22.028 22.028 0 0 0-3.694-1.011 21.8 21.8 0 0 0-3.919-.335c-1.929 0-3.781.224-5.558.673a21.292 21.292 0 0 0-5.101 2.018Zm0-8.224v-5.084a27.103 27.103 0 0 1 5.142-1.57 28.202 28.202 0 0 1 5.518-.523c1.32 0 2.614.1 3.883.299 1.269.199 2.513.448 3.73.747v4.785a22.028 22.028 0 0 0-3.694-1.01 21.8 21.8 0 0 0-3.919-.335c-1.929 0-3.781.237-5.558.711a24.98 24.98 0 0 0-5.101 1.98Z"/></svg>