<svg xmlns="http://www.w3.org/2000/svg" width="101" height="100" fill="none"><path fill="#000" d="M79.332 32.061c-6.44-6.426-16.063-7.746-23.867-4.064l-3.36-3.335a3.486 3.486 0 0 0-2.467-1.016 3.509 3.509 0 0 0-2.467 1.016l-.28.313C46.4 21.605 43.496 19 39.997 19c-3.85 0-7 3.126-7 6.947 0 .313 0 .626.106.904-2.135 1.215-3.605 3.439-3.605 6.044 0 1.598.56 3.022 1.47 4.203a3.377 3.377 0 0 0-1.073 1.194 3.35 3.35 0 0 0-.397 1.55v4.69C21.344 47.38 15.5 55.092 15.5 64.158 15.5 75.656 24.914 85 36.497 85c11.584 0 20.998-9.344 20.998-20.842 0-4.307-1.347-8.508-3.854-12.024a20.946 20.946 0 0 0-10.145-7.602v-4.69a3.348 3.348 0 0 0-.397-1.55 3.377 3.377 0 0 0-1.072-1.194c.91-1.181 1.47-2.605 1.47-4.203 0-.313 0-.626-.106-.903.63-.348 1.155-.834 1.61-1.25 3.255 1.736 5.494 5.14 5.494 9.1v.278c.455.243.875.59 1.33.868.665-1.459 1.575-2.883 2.765-4.03a14.08 14.08 0 0 1 9.904-4.063 14.08 14.08 0 0 1 9.903 4.064 13.87 13.87 0 0 1 4.094 9.83 13.87 13.87 0 0 1-4.094 9.831c-2.8 2.779-6.404 4.064-10.148 4.064.245 1.112.245 2.293.245 3.474 0 1.18-.105 2.327-.245 3.474 5.494 0 10.918-1.98 15.083-6.114a20.767 20.767 0 0 0 4.565-6.753 20.643 20.643 0 0 0 0-15.95 20.767 20.767 0 0 0-4.565-6.754Zm-39.335-9.587c1.925 0 3.5 1.563 3.5 3.473 0 1.147-.596 2.12-1.47 2.745a6.893 6.893 0 0 0-5.53-2.745c0-1.91 1.575-3.473 3.5-3.473Zm-5.53 7.677a6.893 6.893 0 0 0 5.53 2.744c0 1.91-1.575 3.473-3.5 3.473s-3.5-1.563-3.5-3.473c0-1.147.596-2.12 1.47-2.745Zm16.028 34.007c0 7.677-6.264 13.895-13.998 13.895-7.734 0-13.998-6.218-13.998-13.895s6.264-13.895 13.998-13.895c7.734 0 13.998 6.218 13.998 13.895Z"/></svg>