<svg xmlns="http://www.w3.org/2000/svg" width="101" height="100" fill="none"><path fill="#000" d="M52.358 31.3c6.613 0 9.065 3.117 9.288 7.7h8.211c-.26-6.307-4.161-12.1-11.926-13.97V17H46.785v7.92c-1.97.44-3.827 1.1-5.5 1.98l5.463 5.39c1.523-.623 3.38-.99 5.61-.99Zm-26.64-10.413L21 25.543l12.78 12.614c0 7.626 5.797 11.77 14.528 14.336l13.04 12.87c-1.262 1.76-3.9 3.337-8.99 3.337-7.654 0-10.663-3.373-11.072-7.7h-8.174c.446 8.03 6.54 12.54 13.673 14.043V83H57.93v-7.883c3.567-.66 6.762-2.017 9.102-4.107l8.248 8.14L80 74.493 25.718 20.887Z"/></svg>