<svg xmlns="http://www.w3.org/2000/svg" width="101" height="100" fill="none"><path fill="#000" d="m50.5 19-25 11.273v16.909c0 15.64 10.667 30.267 25 33.818 14.333-3.55 25-18.177 25-33.818v-16.91L50.5 19Zm0 10.99c1.648 0 3.26.497 4.63 1.426a8.43 8.43 0 0 1 3.069 3.794 8.569 8.569 0 0 1 .474 4.885 8.493 8.493 0 0 1-2.28 4.329 8.297 8.297 0 0 1-4.267 2.313 8.222 8.222 0 0 1-4.815-.48 8.36 8.36 0 0 1-3.74-3.114 8.542 8.542 0 0 1-1.404-4.697c0-2.243.878-4.393 2.44-5.979a8.274 8.274 0 0 1 5.893-2.476Zm0 22.265c5.556 0 16.667 3.071 16.667 8.68a20.108 20.108 0 0 1-7.21 6.662A19.772 19.772 0 0 1 50.5 70.01c-3.3 0-6.55-.828-9.458-2.412a20.108 20.108 0 0 1-7.209-6.662c0-5.609 11.111-8.68 16.667-8.68Z"/></svg>