<svg xmlns="http://www.w3.org/2000/svg" width="81" height="80" fill="none"><path fill="#000" d="M33.128 22.8h-4.914a4.914 4.914 0 0 0-4.914 4.914V57.2a4.914 4.914 0 0 0 4.914 4.914h24.572A4.914 4.914 0 0 0 57.7 57.2V27.714a4.914 4.914 0 0 0-4.914-4.914H47.87"/><path stroke="#000" stroke-linecap="round" stroke-linejoin="round" stroke-width="4" d="M33.128 22.8h-4.914a4.914 4.914 0 0 0-4.914 4.914V57.2a4.914 4.914 0 0 0 4.914 4.914h24.572A4.914 4.914 0 0 0 57.7 57.2V27.714a4.914 4.914 0 0 0-4.914-4.914H47.87"/><path stroke="#fff" stroke-linecap="round" stroke-linejoin="round" stroke-width="4" d="M45.415 37.543h-6.143a3.686 3.686 0 0 0 0 7.371h2.457a3.686 3.686 0 1 1 0 7.372h-6.143m4.914 0v2.457m0-19.657v2.457M33.13 22.8a4.914 4.914 0 0 1 4.914-4.914h4.915a4.914 4.914 0 0 1 0 9.828h-4.915A4.914 4.914 0 0 1 33.13 22.8Z"/></svg>