<svg xmlns="http://www.w3.org/2000/svg" width="101" height="100" fill="none"><path fill="#000" d="M41.286 28.5h-6.143A6.143 6.143 0 0 0 29 34.643V71.5a6.143 6.143 0 0 0 6.143 6.143h30.714A6.143 6.143 0 0 0 72 71.5V34.643a6.143 6.143 0 0 0-6.143-6.143h-6.143"/><path stroke="#000" stroke-linecap="round" stroke-linejoin="round" stroke-width="4" d="M41.286 28.5h-6.143A6.143 6.143 0 0 0 29 34.643V71.5a6.143 6.143 0 0 0 6.143 6.143h30.714A6.143 6.143 0 0 0 72 71.5V34.643a6.143 6.143 0 0 0-6.143-6.143h-6.143"/><path stroke="#fff" stroke-linecap="round" stroke-linejoin="round" stroke-width="4" d="M56.643 46.929h-7.679a4.607 4.607 0 0 0 0 9.214h3.072a4.607 4.607 0 0 1 0 9.215h-7.679m6.143 0v3.071m0-24.572v3.072M41.286 28.5a6.143 6.143 0 0 1 6.142-6.143h6.143a6.143 6.143 0 0 1 0 12.286H47.43a6.143 6.143 0 0 1-6.143-6.143Z"/></svg>