<svg aria-hidden="true" style="position: absolute; width: 0; height: 0; overflow: hidden;" version="1.1" xmlns="http://www.w3.org/2000/svg" xmlns:xlink="http://www.w3.org/1999/xlink">
<defs>
<symbol id="mail" viewBox="0 0 34 32">
<path stroke-linejoin="round" stroke-linecap="round" stroke-miterlimit="4" stroke-width="2.1333" d="M6.133 5.333h21.333c1.467 0 2.667 1.2 2.667 2.667v16c0 1.467-1.2 2.667-2.667 2.667h-21.333c-1.467 0-2.667-1.2-2.667-2.667v-16c0-1.467 1.2-2.667 2.667-2.667z"></path>
<path stroke-linejoin="round" stroke-linecap="round" stroke-miterlimit="4" stroke-width="2.1333" d="M30.133 8l-13.333 9.333-13.333-9.333"></path>
</symbol>
<symbol id="message" viewBox="0 0 33 32">
<path d="M16.267 0c8.547 0 16 7.056 16 15.2 0 8.006-7.285 14.307-16 14.307-1.864 0.001-3.716-0.294-5.488-0.874-0.742 0.72-0.997 0.965-2.573 2.485-1.136 0.858-2.205 1.149-3.16 0.608-0.963-0.544-1.253-1.603-1.056-2.998l0.64-3.71c-2.779-2.614-4.363-6.070-4.363-9.818 0-8.144 7.451-15.2 16-15.2zM16.267 2.24c-7.338 0-13.76 6.080-13.76 12.96 0 3.272 1.459 6.285 4.032 8.528l0.032 0.027 0.475 0.413-0.107 0.624-0.221 1.286-0.059 0.342-0.456 2.653c-0.027 0.179-0.043 0.359-0.048 0.539v0.152c0 0.008-0.002 0.011-0.003 0.013 0.011-0.016 0.229-0.085 0.602-0.357l3.472-3.37 0.662 0.25c1.721 0.642 3.543 0.97 5.379 0.968 7.546 0 13.76-5.376 13.76-12.069 0-6.878-6.422-12.96-13.76-12.96zM8.63 12.501c0.322-0.012 0.644 0.042 0.945 0.157s0.576 0.29 0.808 0.514c0.232 0.224 0.417 0.492 0.543 0.789s0.191 0.616 0.191 0.939-0.065 0.642-0.191 0.939c-0.126 0.297-0.311 0.565-0.543 0.789s-0.507 0.399-0.808 0.514c-0.301 0.115-0.623 0.169-0.945 0.157-0.621-0.023-1.209-0.285-1.64-0.733s-0.672-1.044-0.672-1.666 0.241-1.219 0.672-1.666c0.431-0.447 1.019-0.71 1.64-0.733zM16.627 12.501c0.322-0.012 0.644 0.042 0.945 0.157s0.576 0.29 0.808 0.514c0.232 0.224 0.417 0.492 0.543 0.789s0.191 0.616 0.191 0.939-0.065 0.642-0.191 0.939c-0.126 0.297-0.311 0.565-0.543 0.789s-0.507 0.399-0.808 0.514c-0.301 0.115-0.623 0.169-0.945 0.157-0.621-0.023-1.209-0.285-1.64-0.733s-0.672-1.044-0.672-1.666 0.241-1.219 0.672-1.666c0.431-0.447 1.019-0.71 1.64-0.733zM24.622 12.501c0.322-0.012 0.644 0.042 0.945 0.157s0.576 0.29 0.808 0.514c0.232 0.224 0.417 0.492 0.543 0.789s0.191 0.616 0.191 0.939-0.065 0.642-0.191 0.939c-0.126 0.297-0.311 0.565-0.543 0.789s-0.507 0.399-0.808 0.514c-0.301 0.115-0.623 0.169-0.945 0.157-0.621-0.023-1.209-0.285-1.64-0.733s-0.672-1.044-0.672-1.666 0.241-1.219 0.672-1.666c0.431-0.447 1.019-0.71 1.64-0.733z"></path>
</symbol>
<symbol id="phone" viewBox="0 0 33 32">
<path stroke-linejoin="round" stroke-linecap="round" stroke-miterlimit="4" stroke-width="2.1333" d="M19.117 6.933c1.302 0.254 2.499 0.891 3.437 1.829s1.575 2.135 1.829 3.437M19.117 1.6c2.706 0.301 5.229 1.512 7.155 3.436s3.141 4.445 3.445 7.151M28.384 22.827v4c0.002 0.371-0.075 0.739-0.223 1.079s-0.367 0.646-0.641 0.897c-0.274 0.251-0.597 0.442-0.948 0.561s-0.725 0.163-1.094 0.13c-4.103-0.446-8.044-1.848-11.507-4.093-3.222-2.047-5.953-4.778-8-8-2.253-3.478-3.656-7.439-4.093-11.56-0.033-0.369 0.010-0.74 0.129-1.091s0.308-0.673 0.558-0.947c0.25-0.273 0.553-0.492 0.892-0.641s0.705-0.227 1.075-0.227h4c0.647-0.006 1.274 0.223 1.765 0.645s0.811 1.008 0.902 1.649c0.169 1.28 0.482 2.537 0.933 3.747 0.179 0.477 0.218 0.996 0.112 1.495s-0.353 0.956-0.712 1.319l-1.693 1.693c1.898 3.338 4.662 6.102 8 8l1.693-1.693c0.363-0.358 0.82-0.606 1.319-0.712s1.017-0.068 1.494 0.112c1.21 0.451 2.467 0.764 3.747 0.933 0.648 0.091 1.239 0.418 1.662 0.917s0.648 1.136 0.631 1.79z"></path>
</symbol>
</defs>
</svg>
