<svg xmlns="http://www.w3.org/2000/svg" width="25" height="24" fill="none"><rect width="24" height="24" x=".5" fill="#60D669" rx="12"/><path fill="url(#a)" d="M3.08 11.414c-.001 1.66.434 3.28 1.262 4.707L3 21l5.015-1.31a9.49 9.49 0 0 0 4.52 1.147h.005c5.214 0 9.458-4.224 9.46-9.415a9.335 9.335 0 0 0-2.768-6.66A9.422 9.422 0 0 0 12.54 2C7.325 2 3.08 6.223 3.08 11.414"/><path fill="#fff" d="M9.565 6.898c-.224-.494-.46-.504-.672-.512-.174-.008-.373-.007-.572-.007a1.1 1.1 0 0 0-.796.37C7.25 7.047 6.48 7.764 6.48 9.22c0 1.458 1.07 2.867 1.219 3.064.15.198 2.065 3.285 5.099 4.472 2.522.987 3.035.791 3.582.741.547-.049 1.766-.716 2.015-1.408.249-.691.249-1.284.174-1.408-.075-.124-.274-.198-.572-.346-.299-.148-1.766-.865-2.04-.964-.274-.099-.473-.148-.672.149-.199.296-.77.963-.945 1.16-.174.199-.348.223-.646.075-.299-.149-1.26-.46-2.4-1.47-.888-.785-1.487-1.755-1.662-2.052-.174-.296-.018-.457.131-.604.135-.133.3-.346.448-.52.15-.172.199-.296.299-.493.1-.198.05-.37-.025-.52-.075-.147-.655-1.613-.92-2.198Z"/><defs><linearGradient id="a" x1="953" x2="953" y1="1902" y2="2" gradientUnits="userSpaceOnUse"><stop stop-color="#1FAF38"/><stop offset="1" stop-color="#60D669"/></linearGradient></defs></svg>